<?xml version="1.0" standalone="no"?>
<!DOCTYPE svg PUBLIC "-//W3C//DTD SVG 1.1//EN" "http://www.w3.org/Graphics/SVG/1.1/DTD/svg11.dtd" >
<svg xmlns="http://www.w3.org/2000/svg">
<metadata></metadata>
<defs>
<font id="SofiaProLightItalic" horiz-adv-x="993" >
<font-face units-per-em="2048" ascent="1536" descent="-512" />
<missing-glyph horiz-adv-x="544" />
<glyph horiz-adv-x="0" />
<glyph horiz-adv-x="2048" />
<glyph unicode=" "  horiz-adv-x="544" />
<glyph unicode="&#x09;" horiz-adv-x="544" />
<glyph unicode="&#xa0;" horiz-adv-x="544" />
<glyph unicode="!" horiz-adv-x="532" d="M166 86q7 45 46.5 76t86.5 31q46 0 72.5 -30.5t19.5 -76.5q-7 -45 -45.5 -75.5t-85.5 -30.5q-46 0 -73.5 30.5t-20.5 75.5zM276 379l170 1032h136l-195 -1032h-111z" />
<glyph unicode="&#x22;" horiz-adv-x="667" d="M311 856l99 555h108l-98 -555h-109zM547 856l98 555h109l-99 -555h-108z" />
<glyph unicode="#" horiz-adv-x="1343" d="M137 358l58 127h225l196 439h-223l58 127h225l162 360h127l-162 -360h295l162 360h126l-161 -360h229l-59 -127h-230l-198 -439h229l-57 -127h-230l-159 -358h-127l159 358h-295l-159 -358h-125l159 358h-225zM545 485h295l198 439h-295z" />
<glyph unicode="$" horiz-adv-x="1134" d="M172 406h135q-20 -112 55 -201.5t216 -89.5q148 0 249.5 68.5t137.5 162.5q38 122 -25 195t-192 104l-183 43q-68 16 -118.5 40.5t-80 54.5t-47.5 61.5t-22.5 68t-4 66t6.5 63.5q19 105 91.5 191.5t173 135.5t208.5 56l37 195h102l-37 -197q162 -21 248.5 -128t57.5 -271 h-136q21 121 -53 194.5t-207 73.5q-122 0 -227 -70.5t-125 -179.5q-2 -23 -3.5 -47t9.5 -50.5t30 -49t58.5 -43t94.5 -33.5l182 -43q68 -16 122 -41t99.5 -63t68 -88t26 -116t-24.5 -146q-49 -126 -173.5 -224t-299.5 -114l-41 -234h-103l41 232q-92 7 -165.5 46t-116.5 98 t-60 132t-4 148z" />
<glyph unicode="%" horiz-adv-x="1339" d="M274 1104q22 115 114.5 194.5t207.5 79.5q114 0 180.5 -80t44.5 -194q-22 -115 -115.5 -194t-207.5 -79q-116 0 -181 79t-43 194zM283 0l917 1378h96l-917 -1378h-96zM391 1104q-11 -66 25 -111t102 -45q65 0 121 45.5t66 110.5q11 65 -28.5 111.5t-103.5 46.5 q-65 0 -118 -46.5t-64 -111.5zM758 252q20 115 113 194.5t208 79.5q114 0 180 -80t46 -194q-20 -115 -114.5 -193.5t-209.5 -78.5t-179 78t-44 194zM874 252q-12 -66 24.5 -111t102.5 -45q65 0 120 45.5t67 110.5q12 64 -26 111t-103 47t-119 -46.5t-66 -111.5z" />
<glyph unicode="&#x26;" horiz-adv-x="1359" d="M190 430q22 122 105 226t205 163q-52 47 -73.5 115.5t-6.5 148.5q26 144 147.5 244t274.5 100q104 0 181 -48t110 -128l-129 -71q-19 52 -68 82t-117 30q-98 0 -173.5 -60t-90.5 -149q-15 -91 34.5 -152t143.5 -61h320l34 181h134l-35 -183h188l-22 -120h-187l-57 -318 q-10 -58 -13 -101.5t3.5 -87t26 -71t58 -44.5t95.5 -17l-25 -129q-117 0 -191.5 52t-86.5 138q-62 -86 -175 -138t-231 -52q-132 0 -226.5 60t-134 162.5t-18.5 227.5zM326 430q-24 -134 50 -224.5t218 -90.5q139 0 244 85.5t135 215.5l57 332h-323q-137 0 -247 -94.5 t-134 -223.5z" />
<glyph unicode="'" horiz-adv-x="432" d="M311 856l99 555h108l-98 -555h-109z" />
<glyph unicode="(" horiz-adv-x="739" d="M193 475q81 449 273.5 700.5t440.5 251.5l-24 -135q-188 0 -337.5 -215.5t-217.5 -601.5q-68 -382 4.5 -599.5t259.5 -217.5l-23 -135q-248 0 -351.5 253t-24.5 699z" />
<glyph unicode=")" horiz-adv-x="739" d="M2 -477l18 135q187 0 337 217t218 600q68 386 -4.5 601.5t-259.5 215.5l25 135q249 0 352 -251.5t23 -700.5q-78 -445 -271 -698.5t-438 -253.5z" />
<glyph unicode="*" horiz-adv-x="997" d="M309 1098q13 24 36 68t36 69l260 -107q21 192 35 299h149l-69 -299l301 107l16 -137l-301 -78q23 -41 148 -238q-27 -18 -74 -46.5t-58 -35.5l-118 248q-34 -41 -111.5 -130t-103.5 -120l-99 86l230 232z" />
<glyph unicode="+" horiz-adv-x="1069" d="M199 475l22 129h352l64 352h129l-64 -352h355l-23 -129h-354l-64 -354h-129l64 354h-352z" />
<glyph unicode="," horiz-adv-x="499" d="M4 -242q169 196 203 432h158q-39 -163 -116.5 -282t-158.5 -178z" />
<glyph unicode="-" d="M217 414l25 129h698l-25 -129h-698z" />
<glyph unicode="." horiz-adv-x="520" d="M160 86q7 45 46.5 76t86.5 31q46 0 72.5 -30.5t19.5 -76.5q-7 -45 -45.5 -75.5t-85.5 -30.5q-46 0 -73.5 30.5t-20.5 75.5z" />
<glyph unicode="/" horiz-adv-x="968" d="M66 0l938 1411h149l-938 -1411h-149z" />
<glyph unicode="0" horiz-adv-x="1249" d="M258 678q21 122 52 222t81.5 191t115.5 152.5t157.5 98t205.5 36.5t192 -36.5t121 -98t58.5 -153t12 -190.5t-26.5 -222q-22 -122 -52 -221t-79.5 -190.5t-113.5 -152.5t-156 -97.5t-205 -36.5t-192.5 36.5t-122.5 98t-60.5 152.5t-13.5 190t26 221zM393 678 q-17 -99 -22 -178.5t6.5 -153t41.5 -123t87 -79t139 -29.5t149 29.5t114 78.5t83.5 123t59.5 153.5t41 178.5q18 100 23 179.5t-5.5 154t-39.5 123.5t-85.5 78.5t-138.5 29.5t-149.5 -29.5t-115.5 -79t-85.5 -123t-61.5 -154t-41 -179.5z" />
<glyph unicode="1" horiz-adv-x="659" d="M281 1106l22 123l391 133l-241 -1362h-136l209 1186z" />
<glyph unicode="2" horiz-adv-x="1075" d="M125 0l6 47l692 690q135 131 156 252q20 114 -49 184t-189 70q-110 0 -202 -59.5t-123 -159.5l-121 33q52 147 182.5 234t288.5 87q176 0 277 -109t71 -280q-32 -178 -209 -348l-518 -506h578l-23 -135h-817z" />
<glyph unicode="3" horiz-adv-x="1095" d="M137 233l131 56q19 -70 84 -117t158 -55q130 -8 244 68t143 192q25 115 -52.5 201t-203.5 86h-131l25 129h131q102 0 185 64t103 157q21 96 -28.5 159t-165.5 70q-85 4 -164 -29.5t-125 -93.5l-96 68q71 94 184 146.5t234 45.5q74 -5 133.5 -28.5t96.5 -59.5t58.5 -83.5 t22 -102t-13.5 -113.5q-23 -82 -88.5 -153.5t-151.5 -106.5q55 -13 97.5 -52.5t64 -91.5t27.5 -113.5t-11 -119.5q-29 -110 -113.5 -199.5t-201 -136t-236.5 -38.5q-86 7 -157 40.5t-118.5 88t-64.5 122.5z" />
<glyph unicode="4" horiz-adv-x="1200" d="M111 291l938 1071h100l-168 -946h205l-23 -125h-205l-51 -291h-135l51 291h-712zM381 416h465l119 676z" />
<glyph unicode="5" horiz-adv-x="1148" d="M143 266l133 84q20 -98 105.5 -163.5t191.5 -65.5q160 0 267 87t131 220q17 90 -18.5 158.5t-99 100.5t-138.5 32q-99 0 -178 -22t-215 -85l-41 72l241 678h668l-25 -137h-551l-161 -451q178 84 288 84q189 0 297.5 -115.5t73.5 -314.5q-37 -205 -190 -326.5t-373 -121.5 q-141 0 -253.5 80t-152.5 206z" />
<glyph unicode="6" horiz-adv-x="1138" d="M227 438q40 309 115 533q63 185 209 299t326 108q58 -2 103.5 -13.5t87.5 -36t73 -69.5t49 -110l-131 -51q-42 138 -213 145q-95 4 -173 -40.5t-130.5 -125.5t-86 -177.5t-50.5 -209.5q49 86 151.5 128.5t202.5 39.5q118 -5 203 -68.5t119 -166.5t8 -222 q-40 -184 -190 -306t-331 -115q-177 8 -270 129.5t-72 328.5zM362 432q-26 -132 43 -221t195 -94q124 -4 225.5 79.5t130.5 211.5q29 129 -36 218.5t-191 94.5t-233.5 -78.5t-133.5 -210.5z" />
<glyph unicode="7" horiz-adv-x="1060" d="M115 0l895 1227h-672l22 135h904l-990 -1362h-159z" />
<glyph unicode="8" horiz-adv-x="1157" d="M190 414q22 119 101.5 219.5t197.5 157.5q-103 92 -75 253q25 139 143 236.5t266 97.5q150 0 234 -97.5t59 -236.5q-13 -76 -58 -141.5t-110 -111.5q94 -58 138.5 -158.5t23.5 -218.5q-32 -182 -187.5 -308t-349.5 -126t-304.5 126t-78.5 308zM326 414q-23 -125 55 -212 t215 -87t246.5 87t132.5 212q23 124 -56.5 214.5t-216.5 90.5l-14 -2q-133 -11 -236.5 -97t-125.5 -206zM551 1044q-14 -84 32 -143t132 -59l18 2q92 6 164.5 62.5t85.5 137.5q14 84 -38.5 141.5t-145.5 57.5q-91 0 -162.5 -58t-85.5 -141z" />
<glyph unicode="9" horiz-adv-x="1142" d="M180 207l127 51q40 -133 230 -145q77 -3 142.5 26.5t113.5 81.5t85 125t60.5 152t36.5 168q-49 -86 -151.5 -128.5t-202.5 -39.5q-119 5 -204 68.5t-118.5 166t-7.5 221.5q40 184 190 306.5t330 115.5q177 -8 270.5 -129.5t73.5 -328.5q-44 -317 -119 -533 q-64 -186 -208 -300t-322 -108q-271 11 -326 230zM424 948q-28 -129 35.5 -219t187.5 -94q127 -5 235.5 78t135.5 211q24 132 -45.5 221t-192.5 94q-124 4 -225.5 -79.5t-130.5 -211.5z" />
<glyph unicode=":" horiz-adv-x="520" d="M160 86q7 45 46.5 76t86.5 31q46 0 72.5 -30.5t19.5 -76.5q-7 -45 -45.5 -75.5t-85.5 -30.5q-46 0 -73.5 30.5t-20.5 75.5zM301 870q7 45 46 76t85 31t73.5 -31t20.5 -76t-45.5 -75.5t-85.5 -30.5q-46 0 -73.5 30.5t-20.5 75.5z" />
<glyph unicode=";" horiz-adv-x="567" d="M43 -242q171 193 205 432h158q-39 -163 -116.5 -282t-158.5 -178zM338 870q7 45 46 76t85 31t73.5 -31t20.5 -76t-46.5 -75.5t-86.5 -30.5q-46 0 -72.5 30.5t-19.5 75.5z" />
<glyph unicode="&#x3c;" horiz-adv-x="1288" d="M182 481l29 148l1112 399l-25 -147l-944 -326l828 -328l-27 -145z" />
<glyph unicode="=" horiz-adv-x="1255" d="M197 240l24 129h940l-24 -129h-940zM272 659l23 129h940l-23 -129h-940z" />
<glyph unicode="&#x3e;" horiz-adv-x="1288" d="M158 82l26 145l942 328l-827 326l27 147l970 -399l-26 -148z" />
<glyph unicode="?" horiz-adv-x="997" d="M274 86q7 45 47 76t87 31q46 0 72.5 -30.5t19.5 -76.5q-7 -45 -45.5 -75.5t-85.5 -30.5q-46 0 -74 30.5t-21 75.5zM276 1030q21 118 92 209t169.5 138.5t207.5 47.5q81 0 151.5 -28t119.5 -78t70.5 -125.5t5.5 -163.5q-25 -142 -125.5 -244t-233.5 -139 q-97 -27 -146 -64.5t-65 -123.5l-14 -80h-135l14 80q13 70 42 123.5t74.5 90t95.5 60.5t116 43q88 26 156.5 94t84.5 160q21 115 -49.5 187.5t-183.5 72.5q-111 0 -200.5 -71.5t-110.5 -188.5h-136z" />
<glyph unicode="@" horiz-adv-x="2021" d="M197 516q33 186 132.5 354.5t240 290.5t319.5 194t364 72q187 0 346.5 -66.5t266.5 -181t153.5 -278t14.5 -348.5q-14 -77 -39.5 -154t-68.5 -155.5t-96.5 -138.5t-128 -98t-157.5 -38q-46 0 -84.5 8.5t-73.5 28.5t-55 53.5t-28.5 82t4.5 114.5l49 270v2 q22 118 -46.5 200.5t-185.5 82.5t-214 -82.5t-119 -200.5q-22 -117 46 -199.5t185 -82.5q111 0 213 86l-25 -146q-111 -65 -211 -65q-111 0 -194.5 54.5t-121 148t-17.5 204.5q31 169 171.5 288.5t309.5 119.5q105 0 188 -51.5t124.5 -141t25.5 -196.5l-55 -305 q-28 -152 137 -152q60 0 113 32t89 80.5t65.5 113t46 122t26.5 115.5q29 159 -12 299.5t-134 238.5t-231 155t-299 57q-213 0 -409 -105.5t-329 -286.5t-171 -395q-28 -160 6 -304t117.5 -248t215 -165t291.5 -61h37l-22 -125h-37q-248 0 -432 120t-264.5 327.5t-36.5 455.5 z" />
<glyph unicode="A" horiz-adv-x="1306" d="M39 0l790 1411h144l295 -1411h-146l-80 371h-653l-205 -371h-145zM461 498h557l-150 725z" />
<glyph unicode="B" horiz-adv-x="1271" d="M205 0l248 1411h514q170 0 252 -94.5t53 -255.5q-19 -109 -74.5 -192.5t-150.5 -116.5q100 -20 153 -128.5t31 -228.5q-31 -167 -157 -281t-308 -114h-561zM365 135h421q116 0 202.5 76.5t105.5 183.5q12 66 -9 131.5t-77 111.5t-134 46h-413zM485 811h394 q104 0 171.5 72.5t86.5 177.5q18 103 -39 160t-168 57h-363z" />
<glyph unicode="C" horiz-adv-x="1359" d="M233 702q36 199 151.5 364.5t290 263t369.5 97.5q147 0 266.5 -55t198.5 -155l-110 -95q-141 170 -377 170q-159 0 -299.5 -79.5t-233 -214t-120.5 -296.5t16.5 -296t156.5 -212.5t271 -78.5q238 0 438 172l78 -97q-114 -100 -254 -155t-287 -55q-195 0 -335.5 97 t-198 262t-21.5 363z" />
<glyph unicode="D" horiz-adv-x="1478" d="M205 0l248 1411h530q117 0 212 -35t157 -99t101 -152.5t44 -195t-14 -227.5q-27 -150 -91.5 -278t-159 -222.5t-223 -148t-274.5 -53.5h-530zM362 135h396q159 0 284 74.5t201 200.5t105 292q24 122 9.5 227t-59 182t-131.5 121t-206 44h-396z" />
<glyph unicode="E" horiz-adv-x="1144" d="M205 0l248 1411h804l-22 -135h-670l-92 -516h586l-25 -135h-585l-87 -490h693l-23 -135h-827z" />
<glyph unicode="F" horiz-adv-x="1064" d="M205 0l248 1411h792l-22 -135h-658l-92 -516h522l-24 -135h-522l-109 -625h-135z" />
<glyph unicode="G" horiz-adv-x="1548" d="M233 702q27 148 105.5 282t189.5 231t252.5 154.5t288.5 57.5q255 0 424 -163l-113 -97q-135 125 -333 125q-160 0 -306 -79t-245 -214.5t-127 -296.5t22.5 -295.5t168.5 -213t278 -78.5q227 0 379.5 119t203.5 331h-411l22 127h563q-62 -351 -268 -531.5t-514 -180.5 q-147 0 -268.5 57t-198.5 154t-108.5 230.5t-4.5 280.5z" />
<glyph unicode="H" horiz-adv-x="1454" d="M205 0l248 1411h135l-115 -647h774l115 647h135l-248 -1411h-135l113 637h-774l-113 -637h-135z" />
<glyph unicode="I" horiz-adv-x="544" d="M205 0l248 1411h135l-248 -1411h-135z" />
<glyph unicode="J" horiz-adv-x="544" d="M-297 -512l37 133q13 -4 54.5 -9t58.5 -5q144 0 227 86.5t108 226.5l263 1491h135l-264 -1491q-17 -95 -53.5 -173.5t-95.5 -141.5t-147 -98t-198 -35q-55 0 -125 16z" />
<glyph unicode="K" horiz-adv-x="1142" d="M205 0l248 1411h135l-121 -686l653 686h160l-674 -706l545 -705h-182l-514 664l-115 -664h-135z" />
<glyph unicode="L" horiz-adv-x="997" d="M205 0l248 1411h135l-226 -1276h599l-23 -135h-733z" />
<glyph unicode="M" horiz-adv-x="1935" d="M125 0l420 1411h135l342 -1100l729 1100h135l-76 -1411h-133l64 1169l-680 -1015h-135l-318 1015l-350 -1169h-133z" />
<glyph unicode="N" horiz-adv-x="1402" d="M205 0l248 1411h145l504 -1173l209 1173h135l-248 -1411h-139l-512 1182l-207 -1182h-135z" />
<glyph unicode="O" horiz-adv-x="1640" d="M233 702q26 148 104.5 282t189.5 231t253 154.5t289 57.5q148 0 270 -57.5t199.5 -154.5t109.5 -231t5 -282q-27 -147 -106 -280.5t-190.5 -230.5t-253.5 -154t-290 -57q-147 0 -268.5 57t-198.5 154t-108.5 230.5t-4.5 280.5zM369 702q-29 -161 21.5 -295.5t169 -213 t278.5 -78.5t306.5 78.5t246 213t127.5 295.5t-23 296.5t-169.5 214.5t-278.5 79t-306 -79t-245 -214.5t-127 -296.5z" />
<glyph unicode="P" horiz-adv-x="1230" d="M205 0l248 1411h555q70 0 126 -17t93 -47t63.5 -71t36.5 -89t12 -101t-10 -107q-15 -85 -50.5 -159t-92 -135.5t-141.5 -97.5t-189 -36h-418l-96 -551h-137zM463 686h407q139 0 220 84t104 209q13 56 5.5 109.5t-29 95t-69.5 67t-116 25.5h-418z" />
<glyph unicode="Q" horiz-adv-x="1640" d="M233 702q27 148 105.5 282t189.5 231t252.5 154.5t288.5 57.5q197 0 343.5 -97t211 -263.5t29.5 -364.5q-35 -196 -158.5 -361.5t-300.5 -262.5l111 -238l-129 -73l-117 253q-116 -40 -246 -40q-147 0 -268.5 57t-198.5 154t-108.5 230.5t-4.5 280.5zM369 702 q-28 -161 22.5 -295.5t168.5 -213t278 -78.5q90 0 166 20l-115 258l129 74l121 -277q146 77 248 213.5t131 298.5q28 161 -23 296.5t-169.5 214.5t-278.5 79t-306 -79t-245 -214.5t-127 -296.5z" />
<glyph unicode="R" horiz-adv-x="1245" d="M205 0l248 1411h524q70 0 125.5 -17t92.5 -47t61.5 -70.5t35 -89.5t10.5 -100.5t-10 -107.5q-11 -66 -34 -125.5t-61 -114.5t-87.5 -95.5t-118.5 -65.5t-149 -27l293 -551h-166l-293 551h-238l-96 -551h-137zM463 686h377q72 0 129 24t94.5 66.5t60 93t33.5 109.5 q13 56 6 109.5t-27 95t-67 67t-115 25.5h-387z" />
<glyph unicode="S" horiz-adv-x="1163" d="M186 406h136q-21 -112 54 -201.5t216 -89.5q148 0 249.5 68.5t137.5 162.5q38 122 -25 195t-192 104l-180 43q-68 16 -119.5 41t-81 55t-47.5 61t-23 67.5t-4.5 66t6.5 63.5q30 166 182.5 275.5t327.5 109.5q191 0 297 -111t74 -292h-135q21 121 -53 194.5t-207 73.5 q-122 0 -227.5 -70.5t-125.5 -179.5q-2 -23 -4 -47t9.5 -50.5t30.5 -49t58.5 -43t94.5 -33.5l182 -43q68 -16 122 -41t99.5 -63t68 -88t26 -116t-24.5 -146q-25 -64 -71.5 -123t-113 -109t-159 -80t-197.5 -30q-101 0 -182 37.5t-127.5 98t-66 136.5t-5.5 154z" />
<glyph unicode="T" horiz-adv-x="1159" d="M285 1276l22 135h1041l-23 -135h-453l-225 -1276h-135l225 1276h-452z" />
<glyph unicode="U" horiz-adv-x="1380" d="M272 477l166 934h135l-165 -934q-14 -81 3 -149.5t59 -114.5t104.5 -72t136.5 -26q153 0 275 100t151 262l166 934h135l-164 -934q-26 -147 -114.5 -262t-212.5 -175t-261 -60q-102 0 -186.5 35.5t-141.5 99t-81 157.5t-5 205z" />
<glyph unicode="V" horiz-adv-x="1128" d="M317 1411h140l143 -1190l565 1190h140l-670 -1411h-141z" />
<glyph unicode="W" horiz-adv-x="1859" d="M295 1411h143l185 -1198l473 1012h102l113 -1012l606 1198h143l-725 -1411h-129l-110 946l-443 -946h-129z" />
<glyph unicode="X" horiz-adv-x="1210" d="M29 0l626 760l-323 651h166l260 -534l450 534h164l-553 -651l363 -760h-166l-299 645l-524 -645h-164z" />
<glyph unicode="Y" horiz-adv-x="1259" d="M276 1411h162l332 -608l549 608h164l-670 -756l-115 -655h-139l115 655z" />
<glyph unicode="Z" horiz-adv-x="1146" d="M86 0l23 135l999 1139h-768l22 137h934l-22 -135l-1002 -1139h799l-22 -137h-963z" />
<glyph unicode="[" horiz-adv-x="612" d="M96 -463l334 1874h336l-23 -137h-198l-285 -1598h199l-27 -139h-336z" />
<glyph unicode="\" horiz-adv-x="968" d="M311 1411h150l442 -1411h-149z" />
<glyph unicode="]" horiz-adv-x="612" d="M10 -463l25 139h198l285 1598h-199l23 137h336l-334 -1874h-334z" />
<glyph unicode="_" horiz-adv-x="1456" d="M102 -250l23 129h1161l-22 -129h-1162z" />
<glyph unicode="`" horiz-adv-x="937" d="M512 1411h168l94 -274h-139z" />
<glyph unicode="a" horiz-adv-x="1253" d="M182 481q39 222 204 359t374 137q111 0 203 -46t127 -132l26 157h137l-166 -956h-137l27 164q-68 -88 -176 -136t-217 -48q-208 0 -324.5 139t-77.5 362zM319 481q-29 -158 55.5 -261t235.5 -103q153 0 272.5 97t149.5 267q15 85 -4 155t-64 113.5t-104 67t-125 23.5 q-152 0 -269.5 -99t-146.5 -260z" />
<glyph unicode="b" horiz-adv-x="1253" d="M166 0l260 1475h137l-121 -676q67 87 175 132.5t219 45.5q208 0 323 -136.5t76 -359.5t-204.5 -362t-373.5 -139q-109 0 -199.5 48.5t-125.5 135.5l-29 -164h-137zM385 481q-20 -114 16 -198t110 -125t173 -41q150 0 267.5 102.5t146.5 261.5q29 162 -53 260.5t-234 98.5 q-66 0 -133.5 -23.5t-127.5 -67t-105 -113.5t-60 -155z" />
<glyph unicode="c" horiz-adv-x="1032" d="M182 481q39 221 208.5 358.5t379.5 137.5q99 0 182.5 -33.5t137.5 -95.5l-111 -96q-87 90 -234 90q-153 0 -275.5 -99.5t-152.5 -261.5t58.5 -264t242.5 -102q143 0 265 92l82 -96q-170 -131 -371 -131q-102 0 -186.5 36t-141.5 100.5t-80 159t-4 205.5z" />
<glyph unicode="d" horiz-adv-x="1253" d="M182 481q39 222 204 359t374 137q111 0 203 -46t127 -132l120 676h138l-261 -1475h-137l27 164q-68 -88 -176 -136t-217 -48q-208 0 -324.5 139t-77.5 362zM319 481q-29 -158 55.5 -261t235.5 -103q153 0 272.5 97t149.5 267q15 85 -4 155t-64 113.5t-104 67t-125 23.5 q-152 0 -269.5 -99t-146.5 -260z" />
<glyph unicode="e" horiz-adv-x="1140" d="M182 481q39 223 201.5 359.5t370.5 136.5q206 0 313 -135.5t68 -360.5q-12 -60 -13 -63h-811q-4 -138 76 -220.5t215 -82.5q96 0 182.5 44t145.5 122q22 -6 69 -17t60 -14q-77 -127 -206 -198.5t-275 -71.5q-208 0 -321.5 138.5t-74.5 362.5zM334 545h674q3 137 -72 217 t-207 80q-135 0 -244 -81t-151 -216z" />
<glyph unicode="f" horiz-adv-x="673" d="M205 834l22 122h187l18 111q16 90 46.5 161t79 128t120.5 88t164 31h102l-24 -129h-103q-65 0 -112 -24.5t-73.5 -69t-40 -87t-22.5 -98.5l-18 -111h235l-22 -122h-236l-145 -834h-137l145 834h-186z" />
<glyph unicode="g" horiz-adv-x="1251" d="M121 -240l127 68q35 -85 105 -127.5t159 -42.5q86 0 157 26.5t133.5 84.5t107.5 160t71 245q-62 -90 -174.5 -142t-222.5 -52q-209 0 -325 136.5t-77 358.5q26 148 112.5 263.5t209 177t258.5 61.5q109 0 200 -48.5t128 -135.5l28 163h137l-143 -804q-110 -629 -623 -629 q-124 0 -222 59.5t-146 177.5zM319 475q-29 -161 55 -259.5t236 -98.5q89 0 176 39t156.5 123t89.5 196q15 86 -1.5 156t-57.5 115.5t-101.5 69.5t-134.5 24q-150 0 -269.5 -103t-148.5 -262z" />
<glyph unicode="h" horiz-adv-x="1142" d="M166 0l260 1475h137l-121 -676q57 87 157 132.5t194 45.5q174 0 251.5 -112t40.5 -308l-96 -557h-137l96 557q25 133 -22.5 209t-157.5 76q-60 0 -117.5 -18t-110 -54t-91.5 -100t-54 -148l-92 -522h-137z" />
<glyph unicode="i" horiz-adv-x="466" d="M166 0l168 956h135l-168 -956h-135zM362 1313q7 42 42.5 70t78.5 28t69 -28t19 -70t-42 -70.5t-78 -28.5t-69.5 28.5t-19.5 70.5z" />
<glyph unicode="j" horiz-adv-x="468" d="M-215 -463l25 129h102q63 0 109.5 24.5t72.5 69t39.5 87t22.5 98.5l178 1011h137l-180 -1011q-16 -90 -46 -161t-77.5 -128t-119 -88t-161.5 -31h-102zM362 1313q7 42 42.5 70t78.5 28t69 -28t19 -70t-42 -70.5t-78 -28.5t-69.5 28.5t-19.5 70.5z" />
<glyph unicode="k" d="M166 0l260 1475h135l-160 -897l447 378h192l-483 -409l424 -547h-186l-402 522l-92 -522h-135z" />
<glyph unicode="l" horiz-adv-x="466" d="M166 0l260 1475h135l-260 -1475h-135z" />
<glyph unicode="m" horiz-adv-x="1828" d="M166 0l168 956h137l-29 -157q56 85 163 131.5t188 46.5q120 0 194 -54t98 -155q42 64 96.5 108t110.5 64.5t100 28.5t87 8q174 0 252 -112t41 -308l-97 -557h-137l96 557q23 133 -24 209t-156 76q-60 0 -117.5 -18t-110 -54t-91.5 -100t-54 -148l-92 -522h-137l96 557 q23 133 -24 209t-156 76q-60 0 -117.5 -18t-110 -54t-91.5 -100t-54 -148l-92 -522h-137z" />
<glyph unicode="n" horiz-adv-x="1142" d="M166 0l168 956h137l-29 -157q57 87 157 132.5t194 45.5q174 0 251.5 -112t40.5 -308l-96 -557h-137l96 557q23 133 -24 209t-156 76q-60 0 -117.5 -18t-110 -54t-91.5 -100t-54 -148l-92 -522h-137z" />
<glyph unicode="o" horiz-adv-x="1200" d="M182 481q39 221 208.5 358.5t379.5 137.5q102 0 186.5 -35.5t141.5 -98.5t80 -157t4 -205q-39 -222 -209 -361.5t-379 -139.5q-102 0 -186.5 36t-141.5 100.5t-80 159t-4 205.5zM317 481q-30 -162 58.5 -264t242.5 -102q153 0 276 102t153 264q30 161 -59 261t-243 100 q-153 0 -275.5 -99.5t-152.5 -261.5z" />
<glyph unicode="p" horiz-adv-x="1253" d="M80 -463l254 1419h137l-29 -165q67 88 176 137t218 49q101 0 184 -36.5t137.5 -101.5t75.5 -160t2 -206q-39 -222 -204 -357.5t-374 -135.5q-111 0 -201.5 45t-125.5 131l-113 -619h-137zM385 473q-15 -85 4.5 -154.5t64.5 -112.5t104.5 -66t125.5 -23q152 0 268.5 97.5 t145.5 258.5q29 159 -54 263t-233 104q-153 0 -274.5 -98.5t-151.5 -268.5z" />
<glyph unicode="q" horiz-adv-x="1253" d="M182 473q39 223 205.5 363.5t374.5 140.5q109 0 201 -49t129 -137l26 165h137l-254 -1419h-137l113 619q-67 -86 -173.5 -131t-217.5 -45q-102 0 -185.5 35t-138.5 97.5t-77 156t-3 204.5zM322 473q-29 -161 53.5 -258.5t234.5 -97.5q90 0 176 38.5t156 122t90 195.5 q15 86 -1.5 156.5t-57.5 116t-101.5 70t-134.5 24.5q-150 0 -268 -104t-147 -263z" />
<glyph unicode="r" horiz-adv-x="772" d="M166 0l168 956h137l-39 -217q110 238 318 238q47 0 91.5 -12t55.5 -25l-39 -133q-59 33 -133 33q-71 0 -132.5 -39.5t-106.5 -107.5t-76 -153.5t-48 -183.5l-59 -356h-137z" />
<glyph unicode="s" horiz-adv-x="868" d="M135 274h121q4 -32 12.5 -57t28.5 -51.5t60 -41.5t98 -15q92 0 153.5 41.5t73.5 109.5q10 51 -16 91.5t-93 56.5l-129 30q-32 8 -58 17.5t-55 25.5t-47.5 39.5t-31.5 55t-12 76t16 98.5q35 101 134 164t218 63q118 0 190 -61.5t68 -186.5h-133q-1 54 -42.5 85.5 t-104.5 31.5q-69 0 -125.5 -33t-73.5 -84q-10 -27 -10.5 -49t8 -38t20 -28.5t29.5 -21t33.5 -13.5t34.5 -10l123 -30q231 -58 192 -279q-22 -123 -135 -201.5t-264 -78.5q-129 0 -214 80.5t-69 213.5z" />
<glyph unicode="t" horiz-adv-x="630" d="M203 834l22 122h172l64 359h137l-63 -359h202l-22 -122h-203l-145 -834h-138l146 834h-172z" />
<glyph unicode="u" horiz-adv-x="1142" d="M223 399l99 557h137l-99 -557q-23 -133 24 -208.5t157 -75.5q60 0 117 17.5t110 54t92.5 100t54.5 147.5l93 522h137l-168 -956h-137l26 158q-57 -87 -157 -132.5t-193 -45.5q-174 0 -252 112t-41 307z" />
<glyph unicode="v" horiz-adv-x="1034" d="M217 956h143l185 -796l465 796h145l-565 -956h-146z" />
<glyph unicode="w" horiz-adv-x="1646" d="M219 956h146l145 -739l405 739h148l145 -739l406 739h145l-526 -956h-115l-162 768l-421 -768h-115z" />
<glyph unicode="x" horiz-adv-x="989" d="M31 0l473 526l-236 430h168l170 -315l283 315h168l-387 -430l288 -526h-165l-230 412l-368 -412h-164z" />
<glyph unicode="y" horiz-adv-x="1034" d="M166 -463l274 465l-223 954h143l187 -778l463 778h145l-848 -1419h-141z" />
<glyph unicode="z" horiz-adv-x="1013" d="M84 0l18 125l762 696h-600l23 135h794l-22 -122l-768 -699h645l-23 -135h-829z" />
<glyph unicode="{" horiz-adv-x="808" d="M156 422l20 117q53 0 101 43t57 98l63 352q30 177 164.5 286t302.5 109h111l-23 -124h-110q-109 0 -199 -76.5t-111 -194.5l-63 -352q-11 -63 -55 -121t-103 -80q49 -20 73 -78.5t13 -119.5l-63 -349q-21 -118 42 -194t173 -76h110l-20 -125h-111q-168 0 -264 109 t-65 286l63 349q9 55 -22 98t-84 43z" />
<glyph unicode="|" horiz-adv-x="466" d="M137 -250l332 1870h102l-331 -1870h-103z" />
<glyph unicode="}" horiz-adv-x="808" d="M2 -463l18 125h111q110 0 201 76t112 194l64 349q9 60 53.5 119t100.5 79q-52 22 -73.5 79.5t-10.5 121.5l63 352q21 118 -43 194.5t-174 76.5h-111l23 124h110q168 0 265.5 -109.5t64.5 -285.5l-63 -352q-9 -55 21 -98t83 -43l-20 -117q-53 0 -100 -43t-56 -98l-61 -349 q-21 -118 -92.5 -209t-170.5 -138.5t-208 -47.5h-107z" />
<glyph unicode="&#xa2;" horiz-adv-x="1071" d="M188 481q36 198 178 330.5t328 159.5l39 223h103l-39 -217q194 -9 301 -129l-113 -96q-87 90 -231 90q-153 0 -276.5 -99.5t-153.5 -261.5t58.5 -264t242.5 -102q145 0 264 92l82 -96q-152 -122 -350 -131l-39 -230h-103l41 236q-177 27 -272.5 161.5t-59.5 333.5z" />
<glyph unicode="&#xa3;" horiz-adv-x="1308" d="M100 0l23 135h201l77 436h-165l20 117h166l63 354q21 117 96 209t178 139.5t212 47.5q168 0 264 -109.5t65 -286.5h-135q20 117 -44 189t-175 72q-113 0 -209.5 -73t-115.5 -188l-64 -354h332l-21 -117h-331l-78 -436h583q19 0 34 14.5t18 36.5l20 121h135l-20 -121 q-13 -79 -74 -132.5t-135 -53.5h-920z" />
<glyph unicode="&#xa5;" horiz-adv-x="1341" d="M311 258l17 96h329l37 203h-329l18 96h330l-398 758h162l332 -608l549 608h164l-670 -758h332l-19 -96h-331l-37 -203h331l-16 -96h-332l-43 -258h-139l43 258h-330z" />
<glyph unicode="&#xa9;" horiz-adv-x="1669" d="M242 702q36 197 159.5 363.5t304.5 264t377 97.5t344.5 -97.5t214.5 -264.5t31 -363q-27 -147 -107 -280.5t-193 -230.5t-256 -154t-290 -57t-269.5 57t-200.5 154t-110 230.5t-5 280.5zM356 702q-29 -166 25.5 -305t178 -220t288.5 -81t318 81t257 220t133 305 q15 102 3.5 192.5t-54.5 167t-106 132t-150 86.5t-186 31q-165 0 -317.5 -81.5t-256.5 -221.5t-133 -306zM598 692q28 154 151.5 260.5t276.5 106.5q74 0 139.5 -32t110.5 -91l-92 -76q-71 88 -176 88q-107 0 -193.5 -75t-105.5 -181t41.5 -181t167.5 -75q100 0 210 92 l62 -79q-142 -123 -293 -123q-153 0 -240 106.5t-59 259.5z" />
<glyph unicode="&#xad;" d="M217 414l25 129h698l-25 -129h-698z" />
<glyph unicode="&#xae;" horiz-adv-x="1669" d="M242 702q36 197 159.5 363.5t304.5 264t377 97.5t344.5 -97.5t214.5 -264.5t31 -363q-27 -147 -107 -280.5t-193 -230.5t-256 -154t-290 -57t-269.5 57t-200.5 154t-110 230.5t-5 280.5zM356 702q-29 -166 25.5 -305t178 -220t288.5 -81t318 81t257 220t133 305 q15 102 3.5 192.5t-54.5 167t-106 132t-150 86.5t-186 31q-165 0 -317.5 -81.5t-256.5 -221.5t-133 -306zM666 336l129 717h272q108 0 153 -67.5t29 -162.5q-14 -80 -72.5 -144.5t-144.5 -78.5l144 -264h-136l-141 260h-76l-45 -260h-112zM844 707h155q55 0 93.5 34.5 t46.5 81.5t-17.5 82t-77.5 35h-159z" />
<glyph unicode="&#xb4;" horiz-adv-x="937" d="M463 1137l192 274h168l-221 -274h-139z" />
<glyph unicode="&#x2000;" horiz-adv-x="810" />
<glyph unicode="&#x2001;" horiz-adv-x="1620" />
<glyph unicode="&#x2002;" horiz-adv-x="810" />
<glyph unicode="&#x2003;" horiz-adv-x="1620" />
<glyph unicode="&#x2004;" horiz-adv-x="540" />
<glyph unicode="&#x2005;" horiz-adv-x="405" />
<glyph unicode="&#x2006;" horiz-adv-x="270" />
<glyph unicode="&#x2007;" horiz-adv-x="270" />
<glyph unicode="&#x2008;" horiz-adv-x="202" />
<glyph unicode="&#x2009;" horiz-adv-x="324" />
<glyph unicode="&#x200a;" horiz-adv-x="90" />
<glyph unicode="&#x2010;" d="M217 414l25 129h698l-25 -129h-698z" />
<glyph unicode="&#x2011;" d="M217 414l25 129h698l-25 -129h-698z" />
<glyph unicode="&#x2012;" d="M217 414l25 129h698l-25 -129h-698z" />
<glyph unicode="&#x2013;" horiz-adv-x="1222" d="M219 414l23 121h923l-22 -121h-924z" />
<glyph unicode="&#x2014;" horiz-adv-x="1665" d="M219 414l23 121h1366l-23 -121h-1366z" />
<glyph unicode="&#x2018;" horiz-adv-x="485" d="M309 991q39 151 111 268.5t143 167.5l76 -26q-69 -74 -121 -179.5t-74 -230.5h-135z" />
<glyph unicode="&#x2019;" horiz-adv-x="481" d="M295 1018q152 170 192 409h136q-41 -153 -112.5 -270t-143.5 -166z" />
<glyph unicode="&#x201c;" horiz-adv-x="722" d="M309 991q39 151 111 268.5t143 167.5l76 -26q-69 -74 -121 -179.5t-74 -230.5h-135zM547 991q39 151 111 268.5t143 167.5l76 -26q-69 -74 -121 -179.5t-74 -230.5h-135z" />
<glyph unicode="&#x201d;" horiz-adv-x="718" d="M295 1018q152 170 192 409h136q-41 -153 -112.5 -270t-143.5 -166zM532 1018q153 172 193 409h135q-41 -153 -112.5 -270t-143.5 -166z" />
<glyph unicode="&#x2022;" horiz-adv-x="937" d="M258 489q22 120 121.5 200.5t222.5 80.5t195 -80.5t51 -200.5q-22 -120 -121.5 -200t-222.5 -80t-195 80t-51 200z" />
<glyph unicode="&#x2026;" horiz-adv-x="1503" d="M160 86q7 45 46.5 76t86.5 31q46 0 72.5 -30.5t19.5 -76.5q-7 -45 -45.5 -75.5t-85.5 -30.5q-46 0 -73.5 30.5t-20.5 75.5zM651 86q7 45 46.5 76t86.5 31q46 0 73 -31t20 -76t-46 -75.5t-86 -30.5q-46 0 -73.5 30.5t-20.5 75.5zM1143 86q7 45 46.5 76t86.5 31 q46 0 72.5 -30.5t19.5 -76.5q-7 -45 -45.5 -75.5t-85.5 -30.5q-46 0 -73.5 30.5t-20.5 75.5z" />
<glyph unicode="&#x202f;" horiz-adv-x="324" />
<glyph unicode="&#x205f;" horiz-adv-x="405" />
<glyph unicode="&#x20ac;" horiz-adv-x="1632" d="M203 535l16 96h957l-17 -96h-600q14 -187 136 -303.5t319 -116.5q238 0 438 172l78 -97q-114 -100 -254 -155t-287 -55q-252 0 -406 155.5t-163 399.5h-217zM244 766l16 96h215q94 248 304.5 406.5t465.5 158.5q147 0 266.5 -55t198.5 -155l-111 -95q-141 170 -376 170 q-199 0 -364 -120t-245 -310h603l-17 -96h-956z" />
<glyph unicode="&#x2122;" horiz-adv-x="1677" d="M369 1307l18 104h672l162 -571l362 571h98l-43 -760h-102l31 572l-322 -506h-92l-145 502l-168 -568h-105l195 656h-223l-115 -656h-105l115 656h-233z" />
<glyph unicode="&#xe000;" horiz-adv-x="952" d="M0 0v952h952v-952h-952z" />
</font>
</defs>
</svg>
